<?xml version="1.0" encoding="UTF-8"?><svg xmlns="http://www.w3.org/2000/svg" xmlns:xlink="http://www.w3.org/1999/xlink" fill-opacity="1" color-rendering="auto" color-interpolation="auto" stroke="black" text-rendering="auto" stroke-linecap="square" width="599" stroke-miterlimit="10" stroke-opacity="1" shape-rendering="auto" fill="black" stroke-dasharray="none" font-weight="normal" stroke-width="1" height="490" font-family="'Dialog'" font-style="normal" stroke-linejoin="miter" font-size="12px" stroke-dashoffset="0" image-rendering="auto">
  <!--Generated by ySVG 2.5-->
  <defs id="genericDefs"/>
  <g>
    <defs id="defs1">
      <linearGradient x1="325" gradientUnits="userSpaceOnUse" x2="539" y1="75" y2="115" id="linearGradient1" spreadMethod="reflect">
        <stop stop-opacity="1" stop-color="rgb(232,238,247)" offset="0%"/>
        <stop stop-opacity="1" stop-color="rgb(183,201,227)" offset="100%"/>
      </linearGradient>
      <linearGradient x1="147.5" gradientUnits="userSpaceOnUse" x2="395.5" y1="505" y2="535" id="linearGradient2" spreadMethod="reflect">
        <stop stop-opacity="1" stop-color="rgb(232,238,247)" offset="0%"/>
        <stop stop-opacity="1" stop-color="rgb(183,201,227)" offset="100%"/>
      </linearGradient>
      <linearGradient x1="363.5" gradientUnits="userSpaceOnUse" x2="500.5" y1="145" y2="175" id="linearGradient3" spreadMethod="reflect">
        <stop stop-opacity="1" stop-color="rgb(232,238,247)" offset="0%"/>
        <stop stop-opacity="1" stop-color="rgb(183,201,227)" offset="100%"/>
      </linearGradient>
      <linearGradient x1="363.5" gradientUnits="userSpaceOnUse" x2="500.5" y1="205" y2="235" id="linearGradient4" spreadMethod="reflect">
        <stop stop-opacity="1" stop-color="rgb(232,238,247)" offset="0%"/>
        <stop stop-opacity="1" stop-color="rgb(183,201,227)" offset="100%"/>
      </linearGradient>
      <linearGradient x1="308" gradientUnits="userSpaceOnUse" x2="556" y1="265" y2="295" id="linearGradient5" spreadMethod="reflect">
        <stop stop-opacity="1" stop-color="rgb(232,238,247)" offset="0%"/>
        <stop stop-opacity="1" stop-color="rgb(183,201,227)" offset="100%"/>
      </linearGradient>
      <linearGradient x1="339.25" gradientUnits="userSpaceOnUse" x2="524.75" y1="325" y2="355" id="linearGradient6" spreadMethod="reflect">
        <stop stop-opacity="1" stop-color="rgb(232,238,247)" offset="0%"/>
        <stop stop-opacity="1" stop-color="rgb(183,201,227)" offset="100%"/>
      </linearGradient>
      <linearGradient x1="261.75" gradientUnits="userSpaceOnUse" x2="602.25" y1="385" y2="415" id="linearGradient7" spreadMethod="reflect">
        <stop stop-opacity="1" stop-color="rgb(232,238,247)" offset="0%"/>
        <stop stop-opacity="1" stop-color="rgb(183,201,227)" offset="100%"/>
      </linearGradient>
      <linearGradient x1="147.5" gradientUnits="userSpaceOnUse" x2="395.5" y1="445" y2="475" id="linearGradient8" spreadMethod="reflect">
        <stop stop-opacity="1" stop-color="rgb(232,238,247)" offset="0%"/>
        <stop stop-opacity="1" stop-color="rgb(183,201,227)" offset="100%"/>
      </linearGradient>
      <linearGradient x1="468" gradientUnits="userSpaceOnUse" x2="716" y1="505" y2="535" id="linearGradient9" spreadMethod="reflect">
        <stop stop-opacity="1" stop-color="rgb(232,238,247)" offset="0%"/>
        <stop stop-opacity="1" stop-color="rgb(183,201,227)" offset="100%"/>
      </linearGradient>
      <linearGradient x1="468" gradientUnits="userSpaceOnUse" x2="716" y1="445" y2="475" id="linearGradient10" spreadMethod="reflect">
        <stop stop-opacity="1" stop-color="rgb(232,238,247)" offset="0%"/>
        <stop stop-opacity="1" stop-color="rgb(183,201,227)" offset="100%"/>
      </linearGradient>
      <clipPath clipPathUnits="userSpaceOnUse" id="clipPath1">
        <path d="M0 0 L599 0 L599 490 L0 490 L0 0 Z"/>
      </clipPath>
      <clipPath clipPathUnits="userSpaceOnUse" id="clipPath2">
        <path d="M132 60 L731 60 L731 550 L132 550 L132 60 Z"/>
      </clipPath>
    </defs>
    <g fill="white" text-rendering="geometricPrecision" shape-rendering="geometricPrecision" transform="translate(-132,-60)" stroke="white">
      <rect x="132" width="599" height="490" y="60" clip-path="url(#clipPath2)" stroke="none"/>
    </g>
    <g fill="url(#linearGradient1)" text-rendering="geometricPrecision" shape-rendering="geometricPrecision" transform="matrix(1,0,0,1,-132,-60)" stroke="url(#linearGradient1)">
      <ellipse rx="107" ry="20" clip-path="url(#clipPath2)" cx="432" cy="95" stroke="none"/>
    </g>
    <g text-rendering="geometricPrecision" stroke-miterlimit="1.45" shape-rendering="geometricPrecision" transform="matrix(1,0,0,1,-132,-60)" stroke-linecap="butt">
      <ellipse rx="107" fill="none" ry="20" clip-path="url(#clipPath2)" cx="432" cy="95"/>
      <text x="349.3623" xml:space="preserve" y="99.5352" font-family="sans-serif" clip-path="url(#clipPath2)" stroke="none">Echantillon environnemental</text>
    </g>
    <g fill="url(#linearGradient2)" text-rendering="geometricPrecision" shape-rendering="geometricPrecision" transform="matrix(1,0,0,1,-132,-60)" stroke="url(#linearGradient2)">
      <rect x="147.5" y="505" clip-path="url(#clipPath2)" width="248" rx="15" ry="15" height="30" stroke="none"/>
    </g>
    <g text-rendering="geometricPrecision" stroke-miterlimit="1.45" shape-rendering="geometricPrecision" transform="matrix(1,0,0,1,-132,-60)" stroke-linecap="butt">
      <rect x="147.5" y="505" clip-path="url(#clipPath2)" fill="none" width="248" rx="15" ry="15" height="30"/>
      <text x="157.0986" xml:space="preserve" y="524.5352" font-family="sans-serif" clip-path="url(#clipPath2)" stroke="none">Organismes présents dans l'échantillon</text>
    </g>
    <g fill="url(#linearGradient3)" text-rendering="geometricPrecision" shape-rendering="geometricPrecision" transform="matrix(1,0,0,1,-132,-60)" stroke="url(#linearGradient3)">
      <path d="M363.5 145 L500.5 145 L500.5 175 L363.5 175 Z" clip-path="url(#clipPath2)" stroke="none"/>
    </g>
    <g text-rendering="geometricPrecision" stroke-miterlimit="1.45" shape-rendering="geometricPrecision" transform="matrix(1,0,0,1,-132,-60)" stroke-linecap="butt">
      <path fill="none" d="M363.5 145 L500.5 145 L500.5 175 L363.5 175 Z" clip-path="url(#clipPath2)"/>
      <text x="375.5039" xml:space="preserve" y="164.5352" font-family="sans-serif" clip-path="url(#clipPath2)" stroke="none">Extraction de l'ADN</text>
    </g>
    <g fill="url(#linearGradient4)" text-rendering="geometricPrecision" shape-rendering="geometricPrecision" transform="matrix(1,0,0,1,-132,-60)" stroke="url(#linearGradient4)">
      <path d="M363.5 205 L500.5 205 L500.5 235 L363.5 235 Z" clip-path="url(#clipPath2)" stroke="none"/>
    </g>
    <g text-rendering="geometricPrecision" stroke-miterlimit="1.45" shape-rendering="geometricPrecision" transform="matrix(1,0,0,1,-132,-60)" stroke-linecap="butt">
      <path fill="none" d="M363.5 205 L500.5 205 L500.5 235 L363.5 235 Z" clip-path="url(#clipPath2)"/>
      <text x="370.2979" xml:space="preserve" y="224.5352" font-family="sans-serif" clip-path="url(#clipPath2)" stroke="none">Séquençage de l'ADN</text>
    </g>
    <g fill="url(#linearGradient5)" text-rendering="geometricPrecision" shape-rendering="geometricPrecision" transform="matrix(1,0,0,1,-132,-60)" stroke="url(#linearGradient5)">
      <path d="M308 265 L556 265 L556 295 L308 295 Z" clip-path="url(#clipPath2)" stroke="none"/>
    </g>
    <g text-rendering="geometricPrecision" stroke-miterlimit="1.45" shape-rendering="geometricPrecision" transform="matrix(1,0,0,1,-132,-60)" stroke-linecap="butt">
      <path fill="none" d="M308 265 L556 265 L556 295 L308 295 Z" clip-path="url(#clipPath2)"/>
      <text x="318.0557" xml:space="preserve" y="284.5352" font-family="sans-serif" clip-path="url(#clipPath2)" stroke="none">Traitement de la qualité des séquences</text>
    </g>
    <g fill="url(#linearGradient6)" text-rendering="geometricPrecision" shape-rendering="geometricPrecision" transform="matrix(1,0,0,1,-132,-60)" stroke="url(#linearGradient6)">
      <path d="M339.25 325 L524.75 325 L524.75 355 L339.25 355 Z" clip-path="url(#clipPath2)" stroke="none"/>
    </g>
    <g text-rendering="geometricPrecision" stroke-miterlimit="1.45" shape-rendering="geometricPrecision" transform="matrix(1,0,0,1,-132,-60)" stroke-linecap="butt">
      <path fill="none" d="M339.25 325 L524.75 325 L524.75 355 L339.25 355 Z" clip-path="url(#clipPath2)"/>
      <text x="348.5713" xml:space="preserve" y="344.5352" font-family="sans-serif" clip-path="url(#clipPath2)" stroke="none">(Assemblage des séquences)</text>
    </g>
    <g fill="url(#linearGradient7)" text-rendering="geometricPrecision" shape-rendering="geometricPrecision" transform="matrix(1,0,0,1,-132,-60)" stroke="url(#linearGradient7)">
      <path d="M261.75 385 L602.25 385 L602.25 415 L261.75 415 Z" clip-path="url(#clipPath2)" stroke="none"/>
    </g>
    <g text-rendering="geometricPrecision" stroke-miterlimit="1.45" shape-rendering="geometricPrecision" transform="matrix(1,0,0,1,-132,-60)" stroke-linecap="butt">
      <path fill="none" d="M261.75 385 L602.25 385 L602.25 415 L261.75 415 Z" clip-path="url(#clipPath2)"/>
      <text x="273.1758" xml:space="preserve" y="404.5352" font-family="sans-serif" clip-path="url(#clipPath2)" stroke="none">Tri des séquences et prédiction de séquences d'intérêt</text>
    </g>
    <g fill="url(#linearGradient8)" text-rendering="geometricPrecision" shape-rendering="geometricPrecision" transform="matrix(1,0,0,1,-132,-60)" stroke="url(#linearGradient8)">
      <path d="M147.5 445 L395.5 445 L395.5 475 L147.5 475 Z" clip-path="url(#clipPath2)" stroke="none"/>
    </g>
    <g text-rendering="geometricPrecision" stroke-miterlimit="1.45" shape-rendering="geometricPrecision" transform="matrix(1,0,0,1,-132,-60)" stroke-linecap="butt">
      <path fill="none" d="M147.5 445 L395.5 445 L395.5 475 L147.5 475 Z" clip-path="url(#clipPath2)"/>
      <text x="158.2178" xml:space="preserve" y="464.5352" font-family="sans-serif" clip-path="url(#clipPath2)" stroke="none">Affiliation taxonomique des séquences</text>
    </g>
    <g fill="url(#linearGradient9)" text-rendering="geometricPrecision" shape-rendering="geometricPrecision" transform="matrix(1,0,0,1,-132,-60)" stroke="url(#linearGradient9)">
      <rect x="468" y="505" clip-path="url(#clipPath2)" width="248" rx="15" ry="15" height="30" stroke="none"/>
    </g>
    <g text-rendering="geometricPrecision" stroke-miterlimit="1.45" shape-rendering="geometricPrecision" transform="matrix(1,0,0,1,-132,-60)" stroke-linecap="butt">
      <rect x="468" y="505" clip-path="url(#clipPath2)" fill="none" width="248" rx="15" ry="15" height="30"/>
      <text x="483.7627" xml:space="preserve" y="524.5352" font-family="sans-serif" clip-path="url(#clipPath2)" stroke="none">Fonctions réalisées dans l'échantillon</text>
    </g>
    <g fill="url(#linearGradient10)" text-rendering="geometricPrecision" shape-rendering="geometricPrecision" transform="matrix(1,0,0,1,-132,-60)" stroke="url(#linearGradient10)">
      <path d="M468 445 L716 445 L716 475 L468 475 Z" clip-path="url(#clipPath2)" stroke="none"/>
    </g>
    <g text-rendering="geometricPrecision" stroke-miterlimit="1.45" shape-rendering="geometricPrecision" transform="matrix(1,0,0,1,-132,-60)" stroke-linecap="butt">
      <path fill="none" d="M468 445 L716 445 L716 475 L468 475 Z" clip-path="url(#clipPath2)"/>
      <text x="479.9395" xml:space="preserve" y="464.5352" font-family="sans-serif" clip-path="url(#clipPath2)" stroke="none">Affiliation fonctionelles des séquences</text>
    </g>
    <g fill="rgb(107,145,179)" text-rendering="geometricPrecision" shape-rendering="geometricPrecision" transform="matrix(1,0,0,1,-132,-60)" stroke="rgb(107,145,179)">
      <rect x="203" y="105" clip-path="url(#clipPath2)" width="30" rx="4" ry="4" height="30" stroke="none"/>
    </g>
    <g stroke-linecap="butt" transform="matrix(1,0,0,1,-132,-60)" fill="white" text-rendering="geometricPrecision" font-family="sans-serif" shape-rendering="geometricPrecision" stroke="white" stroke-miterlimit="1.45">
      <text x="210.4121" xml:space="preserve" y="124.5352" clip-path="url(#clipPath2)" stroke="none">11</text>
      <rect x="203" y="105" clip-path="url(#clipPath2)" fill="none" width="30" rx="4" ry="4" height="30" stroke="black"/>
      <path fill="none" d="M432 115.0269 L432 145.0236" clip-path="url(#clipPath2)" stroke="black"/>
      <path fill="none" d="M432 174.9707 L432 205.0049" clip-path="url(#clipPath2)" stroke="black"/>
      <path fill="none" d="M432 234.9707 L432 265.0049" clip-path="url(#clipPath2)" stroke="black"/>
      <path fill="none" d="M432 294.9707 L432 325.0049" clip-path="url(#clipPath2)" stroke="black"/>
      <path fill="none" d="M432 354.9707 L432 385.0049" clip-path="url(#clipPath2)" stroke="black"/>
      <path fill="none" d="M391.9142 414.9854 L311.6283 444.9988" clip-path="url(#clipPath2)" stroke="black"/>
      <path fill="none" d="M271.5 474.9707 L271.5 505.0049" clip-path="url(#clipPath2)" stroke="black"/>
      <path fill="none" d="M471.9609 414.9854 L551.9968 444.9988" clip-path="url(#clipPath2)" stroke="black"/>
      <path fill="none" d="M592 474.9707 L592 505.0049" clip-path="url(#clipPath2)" stroke="black"/>
    </g>
  </g>
</svg>
