<?xml version="1.0" standalone="no"?><!DOCTYPE svg PUBLIC "-//W3C//DTD SVG 1.1//EN" 	"http://www.w3.org/Graphics/SVG/1.1/DTD/svg11.dtd"><svg width="929" height="540" version="1.1"	xmlns="http://www.w3.org/2000/svg"><title>Krona (snapshot) - all</title><defs>	<style type="text/css">	text {font-size: 11px; font-family: sans-serif; dominant-baseline:central}	path {stroke-width:0.27499999999999997;}	path.wedge {stroke:none}	path.line {fill:none;stroke:black;}	line {stroke:black;stroke-width:0.27499999999999997;}	line.tick {stroke-width:0.5499999999999999;}	line.pattern {stroke-width:0.18333333333333332;}	circle {fill:none;stroke:black;stroke-width:0.27499999999999997;}	rect {stroke:black;stroke-width:0.27499999999999997;}	.highlight {stroke:black;stroke-width:1.375;}	.searchHighlight {fill:rgb(255, 255, 100);stroke:none;}	</style><pattern id="hiddenPattern" patternUnits="userSpaceOnUse" x="0" y="0" width="6.6" height="6.6"><line class="pattern" x1="0" y1="0" x2="3.3" y2="3.3"/><line class="pattern" x1="3.3" y1="6.6" x2="6.6" y2="3.3"/></pattern></defs><path class="wedge" fill="rgb(220,220,220)" d=" M 421.2543470095604,316.4668943073458 L 426.51738803824156,455.86757722938324 A 186,186 0 0,1 419.50000000000006,456 L 419.5,316.5 A 46.5,46.5 0 0 0 421.2543470095604,316.4668943073458 Z "/><path class="wedge" fill="rgb(208,114,114)" d=" M 419.5,316.5 L 419.5,456 A 186,186 0 1,1 426.51738803824156,455.86757722938324 L 421.2543470095604,316.4668943073458 A 46.5,46.5 0 1 0 419.5,316.5 Z "/><path class="wedge" fill="rgb(208,114,114)" d=" M 485.63377476050107,310.72018003795387 L 577.884419618396,367.521154741645 A 186,186 0 0,1 426.51738803824156,455.86757722938324 L 422.43012634100154,347.60942974936637 A 77.66472317851951,77.66472317851951 0 0 0 485.63377476050107,310.72018003795387 Z "/><path class="wedge" fill="rgb(212,127,127)" d=" M 419.5,347.6647231785195 L 419.5,456 A 186,186 0 1,1 479.806741960093,94.04802679663192 L 444.68121731252165,196.5308532712158 A 77.66472317851951,77.66472317851951 0 1 0 419.5,347.6647231785195 Z "/><path class="wedge" fill="rgb(212,127,127)" d=" M 451.1170860698391,171.74728188217475 L 476.47626764686163,92.94152117158245 A 186,186 0 0,1 479.806741960093,94.04802679663192 L 452.96522209846546,172.36130040302248 A 103.21451811198094,103.21451811198094 0 0 0 451.1170860698391,171.74728188217475 Z "/><path class="wedge" fill="rgb(216,140,140)" d=" M 419.5,373.21451811198096 L 419.5,456 A 186,186 0 1,1 473.1255093906331,91.89804958228245 L 449.2576941412027,171.16824200446968 A 103.21451811198094,103.21451811198094 0 1 0 419.5,373.21451811198096 Z "/><path class="wedge" fill="rgb(216,140,140)" d=" M 413.6275790553991,145.6003236182505 L 410.72943610047105,84.20689676717203 A 186,186 0 0,1 473.1255093906331,91.89804958228245 L 455.40550939687694,150.75001380886715 A 124.53820623260393,124.53820623260393 0 0 0 413.6275790553991,145.6003236182505 Z "/><path class="wedge" fill="rgb(221,153,153)" d=" M 419.5,394.5382062326039 L 419.5,456 A 186,186 0 0,1 403.72609804755524,84.67006713109006 L 408.9384222879224,145.91044408224224 A 124.53820623260393,124.53820623260393 0 0 0 419.5,394.5382062326039 Z "/><path class="wedge" fill="rgb(221,153,153)" d=" M 358.3207028712387,141.18806415936734 L 339.7022141444072,101.98716307214809 A 186,186 0 0,1 403.72609804755524,84.67006713109006 L 407.40647855599707,127.91140808895332 A 142.60231839693392,142.60231839693392 0 0 0 358.3207028712387,141.18806415936734 Z "/><path class="wedge" fill="rgb(225,165,165)" d=" M 419.5,412.6023183969339 L 419.5,456 A 186,186 0 0,1 267.89639568355517,162.2393988590318 L 303.2686803609868,187.38219594328308 A 142.60231839693392,142.60231839693392 0 0 0 419.5,412.6023183969339 Z "/><path class="wedge" fill="rgb(225,175,165)" d=" M 303.2686803609868,187.38219594328308 L 267.89639568355517,162.2393988590318 A 186,186 0 0,1 318.27073417852625,113.95950608497355 L 341.8896344313889,150.3670096984654 A 142.60231839693392,142.60231839693392 0 0 0 303.2686803609868,187.38219594328308 Z "/><path class="wedge" fill="rgb(225,177,165)" d=" M 341.8896344313889,150.3670096984654 L 318.27073417852625,113.95950608497355 A 186,186 0 0,1 339.7022141444072,101.98716307214809 L 358.3207028712387,141.18806415936734 A 142.60231839693392,142.60231839693392 0 0 0 341.8896344313889,150.3670096984654 Z "/><path class="wedge" fill="url(#hiddenPattern)" d=" M 341.8896344313889,150.3670096984654 L 318.27073417852625,113.95950608497355 A 186,186 0 0,1 339.7022141444072,101.98716307214809 L 358.3207028712387,141.18806415936734 A 142.60231839693392,142.60231839693392 0 0 0 341.8896344313889,150.3670096984654 Z "/><path class="wedge" fill="rgb(216,158,140)" d=" M 408.9384222879224,145.91044408224224 L 403.72609804755524,84.67006713109006 A 186,186 0 0,1 410.72943610047105,84.20689676717203 L 413.6275790553991,145.6003236182505 A 124.53820623260393,124.53820623260393 0 0 0 408.9384222879224,145.91044408224224 Z "/><path class="wedge" fill="url(#hiddenPattern)" d=" M 408.9384222879224,145.91044408224224 L 403.72609804755524,84.67006713109006 A 186,186 0 0,1 410.72943610047105,84.20689676717203 L 413.6275790553991,145.6003236182505 A 124.53820623260393,124.53820623260393 0 0 0 408.9384222879224,145.91044408224224 Z "/><path class="wedge" fill="rgb(212,150,127)" d=" M 449.2576941412027,171.16824200446968 L 473.1255093906331,91.89804958228245 A 186,186 0 0,1 476.47626764686163,92.94152117158245 L 451.1170860698391,171.74728188217475 A 103.21451811198094,103.21451811198094 0 0 0 449.2576941412027,171.16824200446968 Z "/><path class="wedge" fill="url(#hiddenPattern)" d=" M 449.2576941412027,171.16824200446968 L 473.1255093906331,91.89804958228245 A 186,186 0 0,1 476.47626764686163,92.94152117158245 L 451.1170860698391,171.74728188217475 A 103.21451811198094,103.21451811198094 0 0 0 449.2576941412027,171.16824200446968 Z "/><path class="wedge" fill="rgb(212,151,127)" d=" M 444.68121731252165,196.5308532712158 L 479.806741960093,94.04802679663192 A 186,186 0 0,1 603.7623877339142,295.3647879272945 L 496.4391792234811,280.5911249078236 A 77.66472317851951,77.66472317851951 0 0 0 444.68121731252165,196.5308532712158 Z "/><path class="wedge" fill="rgb(216,161,140)" d=" M 452.96522209846546,172.36130040302248 L 479.806741960093,94.04802679663192 A 186,186 0 0,1 603.7623877339142,295.3647879272945 L 521.7502879361234,284.0753460372489 A 103.21451811198094,103.21451811198094 0 0 0 452.96522209846546,172.36130040302248 Z "/><path class="wedge" fill="rgb(221,171,153)" d=" M 459.8789971367876,152.18955308691045 L 479.806741960093,94.04802679663192 A 186,186 0 0,1 603.7623877339142,295.3647879272945 L 542.8747701318185,286.98325370933156 A 124.53820623260393,124.53820623260393 0 0 0 459.8789971367876,152.18955308691045 Z "/><path class="wedge" fill="rgb(221,171,153)" d=" M 562.024585563596,265.2921637554263 L 605.3986109962069,263.85944386224276 A 186,186 0 0,1 603.7623877339142,295.3647879272945 L 560.7701273344674,289.4466535703159 A 142.60231839693392,142.60231839693392 0 0 0 562.024585563596,265.2921637554263 Z "/><path class="wedge" fill="rgb(225,182,165)" d=" M 465.735920529435,135.10129405744365 L 479.806741960093,94.04802679663192 A 186,186 0 0,1 580.5807251039055,176.99999999999991 L 542.9972303703017,198.69884080153298 A 142.60231839693392,142.60231839693392 0 0 0 465.735920529435,135.10129405744365 Z "/><path class="wedge" fill="rgb(225,185,165)" d=" M 542.9972303703017,198.69884080153298 L 580.5807251039055,176.99999999999991 A 186,186 0 0,1 596.2877468578207,212.1891657132065 L 555.0394761618038,225.67763979700155 A 142.60231839693392,142.60231839693392 0 0 0 542.9972303703017,198.69884080153298 Z "/><path class="wedge" fill="rgb(225,186,165)" d=" M 555.0394761618038,225.67763979700155 L 596.2877468578207,212.1891657132065 A 186,186 0 0,1 602.3613835100009,235.97479727013595 L 559.6960066333172,243.91358713331022 A 142.60231839693392,142.60231839693392 0 0 0 555.0394761618038,225.67763979700155 Z "/><path class="wedge" fill="rgb(225,187,165)" d=" M 559.6960066333172,243.91358713331022 L 602.3613835100009,235.97479727013595 A 186,186 0 0,1 604.7534640832735,253.35205582820106 L 561.5299648889136,257.23636862665995 A 142.60231839693392,142.60231839693392 0 0 0 559.6960066333172,243.91358713331022 Z "/><path class="wedge" fill="rgb(225,187,165)" d=" M 561.5299648889136,257.23636862665995 L 604.7534640832735,253.35205582820106 A 186,186 0 0,1 605.3986109962069,263.85944386224276 L 562.024585563596,265.2921637554263 A 142.60231839693392,142.60231839693392 0 0 0 561.5299648889136,257.23636862665995 Z "/><path class="wedge" fill="url(#hiddenPattern)" d=" M 561.5299648889136,257.23636862665995 L 604.7534640832735,253.35205582820106 A 186,186 0 0,1 605.3986109962069,263.85944386224276 L 562.024585563596,265.2921637554263 A 142.60231839693392,142.60231839693392 0 0 0 561.5299648889136,257.23636862665995 Z "/><path class="wedge" fill="rgb(212,160,127)" d=" M 496.4391792234811,280.5911249078236 L 603.7623877339142,295.3647879272945 A 186,186 0 0,1 590.7481657278327,342.5952184021288 L 491.00506121549114,300.3122986090618 A 77.66472317851951,77.66472317851951 0 0 0 496.4391792234811,280.5911249078236 Z "/><path class="wedge" fill="rgb(216,169,140)" d=" M 521.7502879361234,284.0753460372489 L 603.7623877339142,295.3647879272945 A 186,186 0 0,1 592.0873590771507,339.35130486713734 L 515.2716188138039,308.48420167902503 A 103.21451811198094,103.21451811198094 0 0 0 521.7502879361234,284.0753460372489 Z "/><path class="wedge" fill="rgb(221,179,153)" d=" M 542.8747701318185,286.98325370933156 L 603.7623877339142,295.3647879272945 A 186,186 0 0,1 592.0873590771507,339.35130486713734 L 535.0576350424229,316.4348769249664 A 124.53820623260393,124.53820623260393 0 0 0 542.8747701318185,286.98325370933156 Z "/><path class="wedge" fill="rgb(225,188,165)" d=" M 560.7701273344674,289.4466535703159 L 603.7623877339142,295.3647879272945 A 186,186 0 0,1 592.0873590771507,339.35130486713734 L 551.8191265075582,323.17019816078687 A 142.60231839693392,142.60231839693392 0 0 0 560.7701273344674,289.4466535703159 Z "/><path class="wedge" fill="rgb(212,162,127)" d=" M 515.2716188138039,308.48420167902503 L 592.0873590771507,339.35130486713734 A 186,186 0 0,1 590.7481657278327,342.5952184021288 L 514.5284779739725,310.2843036806975 A 103.21451811198094,103.21451811198094 0 0 0 515.2716188138039,308.48420167902503 Z "/><path class="wedge" fill="url(#hiddenPattern)" d=" M 515.2716188138039,308.48420167902503 L 592.0873590771507,339.35130486713734 A 186,186 0 0,1 590.7481657278327,342.5952184021288 L 514.5284779739725,310.2843036806975 A 103.21451811198094,103.21451811198094 0 0 0 515.2716188138039,308.48420167902503 Z "/><path class="wedge" fill="rgb(212,162,127)" d=" M 491.00506121549114,300.3122986090618 L 590.7481657278327,342.5952184021288 A 186,186 0 0,1 581.4509254307138,361.47621413315807 L 487.12297737678193,308.1961013337134 A 77.66472317851951,77.66472317851951 0 0 0 491.00506121549114,300.3122986090618 Z "/><path class="wedge" fill="rgb(212,162,127)" d=" M 510.3110226096228,319.05705781722975 L 583.148007221856,358.40435358236255 A 186,186 0 0,1 581.4509254307138,361.47621413315807 L 509.369283473766,320.76168473366823 A 103.21451811198094,103.21451811198094 0 0 0 510.3110226096228,319.05705781722975 Z "/><path class="wedge" fill="rgb(212,162,127)" d=" M 514.5284779739725,310.2843036806975 L 590.7481657278327,342.5952184021288 A 186,186 0 0,1 583.148007221856,358.40435358236255 L 510.3110226096228,319.05705781722975 A 103.21451811198094,103.21451811198094 0 0 0 514.5284779739725,310.2843036806975 Z "/><path class="wedge" fill="url(#hiddenPattern)" d=" M 514.5284779739725,310.2843036806975 L 590.7481657278327,342.5952184021288 A 186,186 0 0,1 583.148007221856,358.40435358236255 L 510.3110226096228,319.05705781722975 A 103.21451811198094,103.21451811198094 0 0 0 514.5284779739725,310.2843036806975 Z "/><path class="wedge" fill="rgb(208,153,114)" d=" M 487.12297737678193,308.1961013337134 L 581.4509254307138,361.47621413315807 A 186,186 0 0,1 577.884419618396,367.521154741645 L 485.63377476050107,310.72018003795387 A 77.66472317851951,77.66472317851951 0 0 0 487.12297737678193,308.1961013337134 Z "/><path class="wedge" fill="url(#hiddenPattern)" d=" M 487.12297737678193,308.1961013337134 L 581.4509254307138,361.47621413315807 A 186,186 0 0,1 577.884419618396,367.521154741645 L 485.63377476050107,310.72018003795387 A 77.66472317851951,77.66472317851951 0 0 0 487.12297737678193,308.1961013337134 Z "/><circle cx="419.5" cy="270" r="46.5"/><circle cx="419.5" cy="270" r="186"/><text x="419.5" y="270" text-anchor="middle" style="font-color:black;font-weight:bold" transform="rotate(360,419.5,270)">all</text><rect fill="rgb(220,220,220)" x="898.9" y="509.9" width="22" height="22"/><path class="line" d="M 423.00931868991097,455.96689136062 L 424.23464955431905,520.9 L 646,520.9 L 775.3845377604166,520.9"/><text x="891.5666666666666" y="520.9" style="font-color:black;font-weight:normal" text-anchor="end">[unassigned all]&#160;&#160;&#160;0.6%</text><path class="line" d=" M 421.2543470095604,316.4668943073458 A 46.5,46.5 0 1 0 419.5,316.5"/><line x1="426.51738803824156" y1="455.86757722938324" x2="421.2543470095604" y2="316.4668943073458"/><text x="419.5" y="214.15058304644415" text-anchor="middle" style="font-color:black;font-weight:normal" transform="rotate(358.9189189189189,419.5,270)">Bacteria</text><path class="line" d=" M 444.68121731252165,196.5308532712158 A 77.66472317851951,77.66472317851951 0 1 0 419.5,347.6647231785195"/><line x1="479.806741960093" y1="94.04802679663192" x2="444.68121731252165" y2="196.5308532712158"/><text x="419.5" y="179.56037935474978" text-anchor="middle" style="font-color:black;font-weight:normal" transform="rotate(279.4594594594595,419.5,270)">Firmicutes</text><path class="line" d=" M 449.2576941412027,171.16824200446968 A 103.21451811198094,103.21451811198094 0 1 0 419.5,373.21451811198096"/><line x1="473.1255093906331" y1="91.89804958228245" x2="449.2576941412027" y2="171.16824200446968"/><text x="419.5" y="156.12363782770757" text-anchor="middle" style="font-color:black;font-weight:normal" transform="rotate(278.3783783783784,419.5,270)">Clostridia</text><path class="line" d=" M 408.9384222879224,145.91044408224224 A 124.53820623260393,124.53820623260393 0 0 0 419.5,394.5382062326039"/><line x1="403.72609804755524" y1="84.67006713109006" x2="408.9384222879224" y2="145.91044408224224"/><text x="419.5" y="403.5702623147689" text-anchor="middle" style="font-color:black;font-weight:normal" transform="rotate(87.56756756756755,419.5,270)">Clostridiales</text><path class="line" d=" M 303.2686803609868,187.38219594328308 A 142.60231839693392,142.60231839693392 0 0 0 419.5,412.6023183969339"/><line x1="267.89639568355517" y1="162.2393988590318" x2="303.2686803609868" y2="187.38219594328308"/><text x="255.19884080153304" y="270" text-anchor="end" style="font-color:black;font-weight:normal" transform="rotate(-27.297297297297295,419.5,270)">Ruminococcaceae&#160;&#160;&#160;35%</text><path class="line" d=" M 341.8896344313889,150.3670096984654 A 142.60231839693392,142.60231839693392 0 0 0 303.2686803609868,187.38219594328308"/><line x1="318.27073417852625" y1="113.95950608497355" x2="341.8896344313889" y2="150.3670096984654"/><text x="255.19884080153304" y="270" text-anchor="end" style="font-color:black;font-weight:normal" transform="rotate(46.21621621621622,419.5,270)">Lachnospiraceae&#160;&#160;&#160;6%</text><line x1="597.25" y1="270" x2="613.75" y2="270" class="tick" transform="rotate(240.8108108108108,419.5,270)"/><text x="222.5" y="270" text-anchor="end" style="font-color:black;font-weight:normal" transform="rotate(60.81081081081079,419.5,270)">5 more</text><path class="line" d=" M 358.3207028712387,141.18806415936734 A 142.60231839693392,142.60231839693392 0 0 0 341.8896344313889,150.3670096984654"/><line x1="339.7022141444072" y1="101.98716307214809" x2="358.3207028712387" y2="141.18806415936734"/><path class="line" d=" M 413.6275790553991,145.6003236182505 A 124.53820623260393,124.53820623260393 0 0 0 408.9384222879224,145.91044408224224"/><line x1="410.72943610047105" y1="84.20689676717203" x2="413.6275790553991" y2="145.6003236182505"/><path class="line" d=" M 451.1170860698391,171.74728188217475 A 103.21451811198094,103.21451811198094 0 0 0 449.2576941412027,171.16824200446968"/><line x1="476.47626764686163" y1="92.94152117158245" x2="451.1170860698391" y2="171.74728188217475"/><path class="line" d=" M 496.4391792234811,280.5911249078236 A 77.66472317851951,77.66472317851951 0 0 0 444.68121731252165,196.5308532712158"/><line x1="603.7623877339142" y1="295.3647879272945" x2="496.4391792234811" y2="280.5911249078236"/><text x="419.5" y="179.56037935474978" text-anchor="middle" style="font-color:black;font-weight:normal" transform="rotate(418.3783783783784,419.5,270)">Bacteroidetes</text><path class="line" d=" M 521.7502879361234,284.0753460372489 A 103.21451811198094,103.21451811198094 0 0 0 452.96522209846546,172.36130040302248"/><text x="419.5" y="156.12363782770757" text-anchor="middle" style="font-color:black;font-weight:normal" transform="rotate(418.3783783783784,419.5,270)">Bacteroidia</text><path class="line" d=" M 542.8747701318185,286.98325370933156 A 124.53820623260393,124.53820623260393 0 0 0 459.8789971367876,152.18955308691045"/><text x="419.5" y="136.42973768523106" text-anchor="middle" style="font-color:black;font-weight:normal" transform="rotate(418.3783783783784,419.5,270)">Bacteroidales</text><path class="line" d=" M 542.9972303703017,198.69884080153298 A 142.60231839693392,142.60231839693392 0 0 0 465.735920529435,135.10129405744365"/><line x1="580.5807251039055" y1="176.99999999999991" x2="542.9972303703017" y2="198.69884080153298"/><text x="583.801159198467" y="270" text-anchor="start" style="font-color:black;font-weight:normal" transform="rotate(309.4594594594595,419.5,270)">11%&#160;&#160;&#160;Bacteroidaceae</text><path class="line" d=" M 555.0394761618038,225.67763979700155 A 142.60231839693392,142.60231839693392 0 0 0 542.9972303703017,198.69884080153298"/><line x1="596.2877468578207" y1="212.1891657132065" x2="555.0394761618038" y2="225.67763979700155"/><text x="583.801159198467" y="270" text-anchor="start" style="font-color:black;font-weight:normal" transform="rotate(335.945945945946,419.5,270)">3%&#160;&#160;&#160;Barnesiellaceae</text><path class="line" d=" M 559.6960066333172,243.91358713331022 A 142.60231839693392,142.60231839693392 0 0 0 555.0394761618038,225.67763979700155"/><line x1="602.3613835100009" y1="235.97479727013595" x2="559.6960066333172" y2="243.91358713331022"/><text x="583.801159198467" y="270" text-anchor="start" style="font-color:black;font-weight:normal" transform="rotate(345.6756756756757,419.5,270)">2%&#160;&#160;&#160;S24-7</text><path class="line" d=" M 561.5299648889136,257.23636862665995 A 142.60231839693392,142.60231839693392 0 0 0 559.6960066333172,243.91358713331022"/><line x1="604.7534640832735" y1="253.35205582820106" x2="561.5299648889136" y2="257.23636862665995"/><text x="583.801159198467" y="270" text-anchor="start" style="font-color:black;font-weight:normal" transform="rotate(352.16216216216213,419.5,270)">2%&#160;&#160;&#160;Porphyromonadaceae</text><path class="line" d=" M 562.024585563596,265.2921637554263 A 142.60231839693392,142.60231839693392 0 0 0 561.5299648889136,257.23636862665995"/><line x1="605.3986109962069" y1="263.85944386224276" x2="562.024585563596" y2="265.2921637554263"/><path class="line" d=" M 491.00506121549114,300.3122986090618 A 77.66472317851951,77.66472317851951 0 0 0 496.4391792234811,280.5911249078236"/><line x1="590.7481657278327" y1="342.5952184021288" x2="491.00506121549114" y2="300.3122986090618"/><text x="419.5" y="360.4396206452502" text-anchor="middle" style="font-color:black;font-weight:normal" transform="rotate(285.4054054054054,419.5,270)">...</text><path class="line" d=" M 515.2716188138039,308.48420167902503 A 103.21451811198094,103.21451811198094 0 0 0 521.7502879361234,284.0753460372489"/><line x1="592.0873590771507" y1="339.35130486713734" x2="515.2716188138039" y2="308.48420167902503"/><text x="419.5" y="383.87636217229243" text-anchor="middle" style="font-color:black;font-weight:normal" transform="rotate(284.8648648648649,419.5,270)">Verrucomicrobiae</text><path class="line" d=" M 535.0576350424229,316.4348769249664 A 124.53820623260393,124.53820623260393 0 0 0 542.8747701318185,286.98325370933156"/><text x="419.5" y="403.5702623147689" text-anchor="middle" style="font-color:black;font-weight:normal" transform="rotate(284.8648648648649,419.5,270)">Verrucomicrobiales</text><path class="line" d=" M 551.8191265075582,323.17019816078687 A 142.60231839693392,142.60231839693392 0 0 0 560.7701273344674,289.4466535703159"/><text x="583.801159198467" y="270" text-anchor="start" style="font-color:black;font-weight:normal" transform="rotate(374.86486486486484,419.5,270)">4%&#160;&#160;&#160;Verrucomicrobiaceae</text><path class="line" d=" M 514.5284779739725,310.2843036806975 A 103.21451811198094,103.21451811198094 0 0 0 515.2716188138039,308.48420167902503"/><path class="line" d=" M 487.12297737678193,308.1961013337134 A 77.66472317851951,77.66472317851951 0 0 0 491.00506121549114,300.3122986090618"/><line x1="581.4509254307138" y1="361.47621413315807" x2="487.12297737678193" y2="308.1961013337134"/><text x="419.5" y="360.4396206452502" text-anchor="middle" style="font-color:black;font-weight:normal" transform="rotate(296.2162162162162,419.5,270)">...</text><line x1="597.25" y1="270" x2="613.75" y2="270" class="tick" transform="rotate(385.6756756756757,419.5,270)"/><text x="616.5" y="270" text-anchor="start" style="font-color:black;font-weight:normal" transform="rotate(385.6756756756757,419.5,270)">2 more</text><path class="line" d=" M 510.3110226096228,319.05705781722975 A 103.21451811198094,103.21451811198094 0 0 0 514.5284779739725,310.2843036806975"/><line x1="583.148007221856" y1="358.40435358236255" x2="510.3110226096228" y2="319.05705781722975"/><path class="line" d=" M 485.63377476050107,310.72018003795387 A 77.66472317851951,77.66472317851951 0 0 0 487.12297737678193,308.1961013337134"/><line x1="577.884419618396" y1="367.521154741645" x2="485.63377476050107" y2="310.72018003795387"/></svg>